<svg xmlns="http://www.w3.org/2000/svg" width="22" height="21" viewBox="0 0 22 21"><g><g><path fill="#cdcdcd" d="M19.872 21.002H1.662c-.915 0-1.658-.657-1.658-1.55V1.615c0-.893.743-1.618 1.659-1.618h18.209c.916 0 1.658.725 1.658 1.618v17.835c0 .894-.742 1.551-1.658 1.551zM9.176 4.052c-.982 0-1.935.152-2.577.458a2.971 2.971 0 0 0-1.346 1.334c-.24.487-.359 1.08-.359 2.068v.938h-1.61v2.459h1.61v8.168h3.443V11.31h2.147l.594-2.459H8.337v-.883c0-.597.11-1.001.333-1.211.223-.21.665-.336 1.177-.336.52 0 .938.237 1.464.536l.627-2.314c-.966-.265-1.754-.59-2.762-.59z"/></g></g></svg>