<svg xmlns="http://www.w3.org/2000/svg" width="36" height="48" viewBox="0 0 36 48"><g><g><path fill="#fff" d="M17.944 47.993C15.028 48.008.404 25.522.404 17.997.405 8.058 8.258.001 17.945.001s17.54 8.057 17.54 17.996c0 7.424-14.67 30.011-17.54 29.996zm0-44.993C9.872 3 3.328 9.714 3.328 17.997c0 6.271 12.186 25.51 14.616 25.497 2.392.012 14.617-19.31 14.617-25.497C32.56 9.714 26.017 3 17.944 3zm0 22.497c-4.036 0-7.308-3.358-7.308-7.5 0-4.14 3.272-7.498 7.308-7.498s7.308 3.357 7.308 7.498c0 4.142-3.272 7.5-7.308 7.5zm0-11.999c-2.421 0-4.385 2.015-4.385 4.5 0 2.484 1.964 4.498 4.385 4.498 2.422 0 4.385-2.014 4.385-4.499 0-2.484-1.963-4.499-4.385-4.499z"/></g></g></svg>