<svg xmlns="http://www.w3.org/2000/svg" width="23" height="21" viewBox="0 0 23 21"><g><g><path fill="#cdcdcd" d="M19.486 21H3.336C1.848 21 .643 19.825.643 18.375V2.625C.644 1.175 1.849 0 3.335 0h16.151c1.487 0 2.692 1.175 2.692 2.625v15.75c0 1.45-1.205 2.625-2.692 2.625zM11.411 6.432a4.177 4.177 0 0 0-3.784 2.362h-.004l-.018.045c-.04.086-.075.174-.108.264-.016.042-.034.084-.048.127-.031.091-.056.185-.08.279-.012.044-.025.087-.035.131-.022.1-.037.2-.052.302-.005.041-.014.081-.019.123a4.012 4.012 0 0 0-.024.435c0 2.247 1.868 4.069 4.172 4.069 2.304 0 4.172-1.822 4.172-4.069 0-.147-.009-.292-.024-.435-.005-.042-.014-.082-.02-.123a4.086 4.086 0 0 0-.051-.302c-.01-.044-.023-.087-.035-.131a3.936 3.936 0 0 0-.08-.279c-.014-.043-.032-.085-.048-.127a4.048 4.048 0 0 0-.108-.264l-.018-.045h-.004a4.177 4.177 0 0 0-3.784-2.362zm8.345-3.02c0-.58-.482-1.05-1.077-1.05h-2.154c-.594 0-1.076.47-1.076 1.05v2.1c0 .58.482 1.05 1.076 1.05h2.154c.595 0 1.077-.47 1.077-1.05zm0 5.382H17.77c.153.543.235 1.115.235 1.706 0 3.552-2.953 6.431-6.595 6.431S4.816 14.052 4.816 10.5c0-.59.082-1.163.235-1.706H3.066v8.794c0 .58.482 1.05 1.077 1.05h14.536c.595 0 1.077-.47 1.077-1.05z"/></g></g></svg>