<svg xmlns="http://www.w3.org/2000/svg" width="22" height="18" viewBox="0 0 22 18"><g><g><path fill="#cdcdcd" d="M14.47.521c1.71-.029 2.621.57 3.491 1.333.739-.061 1.699-.458 2.264-.734l.55-.289c-.323.839-.761 1.495-1.434 1.994-.15.11-.298.26-.485.33v.01c.959-.009 1.75-.424 2.5-.65v.01c-.394.603-.928 1.214-1.498 1.653l-.69.527c.013.976-.014 1.907-.204 2.727-1.104 4.767-4.027 8.004-8.655 9.39-1.662.498-4.347.703-6.251.248-.945-.225-1.797-.48-2.598-.816a10.544 10.544 0 0 1-1.25-.62l-.388-.227c.43.012.932.126 1.412.052.434-.068.86-.05 1.26-.135 1-.21 1.888-.489 2.652-.919.37-.208.933-.454 1.197-.754a3.893 3.893 0 0 1-1.315-.227c-1.43-.486-2.261-1.377-2.803-2.717.433.045 1.68.154 1.973-.083-.546-.029-1.07-.332-1.444-.558C1.604 9.375.666 8.215.674 6.43l.452.207c.289.117.582.18.927.248.145.029.436.11.604.051h-.022c-.223-.249-.585-.415-.808-.682-.738-.88-1.43-2.237-.992-3.853.11-.41.287-.771.474-1.105l.022.01c.086.173.277.3.399.445.376.448.84.852 1.315 1.208 1.613 1.213 3.066 1.958 5.4 2.51.591.14 1.275.247 1.983.248-.2-.556-.135-1.455.021-1.993.393-1.354 1.247-2.329 2.5-2.852.3-.125.633-.216.981-.289l.54-.062z"/></g></g></svg>